<mxfile host="app.diagrams.net" agent="Mozilla/5.0 (Macintosh; Intel Mac OS X 10_15_7) AppleWebKit/537.36 (KHTML, like Gecko) Chrome/139.0.0.0 Safari/537.36" version="26.1.1">
  <diagram name="Page-1" id="47uw62k2DX8FrtbEl8Bh">
    <mxGraphModel dx="922" dy="622" grid="1" gridSize="10" guides="1" tooltips="1" connect="1" arrows="1" fold="1" page="1" pageScale="1" pageWidth="850" pageHeight="1100" math="0" shadow="0">
      <root>
        <mxCell id="0" />
        <mxCell id="1" parent="0" />
        <mxCell id="JFALsLwdeSYhTvg4Bosl-12" style="edgeStyle=orthogonalEdgeStyle;rounded=0;orthogonalLoop=1;jettySize=auto;html=1;exitX=0.5;exitY=0;exitDx=0;exitDy=0;entryX=0.25;entryY=1;entryDx=0;entryDy=0;" edge="1" parent="1" source="JFALsLwdeSYhTvg4Bosl-1" target="JFALsLwdeSYhTvg4Bosl-11">
          <mxGeometry relative="1" as="geometry" />
        </mxCell>
        <mxCell id="JFALsLwdeSYhTvg4Bosl-1" value="Sensor" style="rounded=0;whiteSpace=wrap;html=1;" vertex="1" parent="1">
          <mxGeometry x="40" y="70" width="70" height="30" as="geometry" />
        </mxCell>
        <mxCell id="JFALsLwdeSYhTvg4Bosl-5" style="edgeStyle=orthogonalEdgeStyle;rounded=0;orthogonalLoop=1;jettySize=auto;html=1;exitX=1;exitY=0.5;exitDx=0;exitDy=0;entryX=0;entryY=0.75;entryDx=0;entryDy=0;" edge="1" parent="1" source="JFALsLwdeSYhTvg4Bosl-2" target="JFALsLwdeSYhTvg4Bosl-3">
          <mxGeometry relative="1" as="geometry" />
        </mxCell>
        <mxCell id="JFALsLwdeSYhTvg4Bosl-14" style="edgeStyle=orthogonalEdgeStyle;rounded=0;orthogonalLoop=1;jettySize=auto;html=1;exitX=0.5;exitY=1;exitDx=0;exitDy=0;entryX=0.5;entryY=0;entryDx=0;entryDy=0;" edge="1" parent="1" source="JFALsLwdeSYhTvg4Bosl-2" target="JFALsLwdeSYhTvg4Bosl-13">
          <mxGeometry relative="1" as="geometry" />
        </mxCell>
        <mxCell id="JFALsLwdeSYhTvg4Bosl-2" value="Sensor" style="rounded=0;whiteSpace=wrap;html=1;" vertex="1" parent="1">
          <mxGeometry x="40" y="120" width="70" height="30" as="geometry" />
        </mxCell>
        <mxCell id="JFALsLwdeSYhTvg4Bosl-3" value="Info Collector&lt;br&gt;(vm1)" style="rounded=1;whiteSpace=wrap;html=1;" vertex="1" parent="1">
          <mxGeometry x="150" y="80" width="120" height="60" as="geometry" />
        </mxCell>
        <mxCell id="JFALsLwdeSYhTvg4Bosl-4" style="edgeStyle=orthogonalEdgeStyle;rounded=0;orthogonalLoop=1;jettySize=auto;html=1;exitX=1;exitY=0.5;exitDx=0;exitDy=0;entryX=-0.008;entryY=0.367;entryDx=0;entryDy=0;entryPerimeter=0;" edge="1" parent="1" source="JFALsLwdeSYhTvg4Bosl-1" target="JFALsLwdeSYhTvg4Bosl-3">
          <mxGeometry relative="1" as="geometry" />
        </mxCell>
        <mxCell id="JFALsLwdeSYhTvg4Bosl-6" value="" style="endArrow=classic;startArrow=classic;html=1;rounded=0;exitX=1;exitY=0.5;exitDx=0;exitDy=0;" edge="1" parent="1" source="JFALsLwdeSYhTvg4Bosl-3" target="JFALsLwdeSYhTvg4Bosl-8">
          <mxGeometry width="50" height="50" relative="1" as="geometry">
            <mxPoint x="400" y="350" as="sourcePoint" />
            <mxPoint x="440" y="110" as="targetPoint" />
          </mxGeometry>
        </mxCell>
        <mxCell id="JFALsLwdeSYhTvg4Bosl-8" value="System Decider&lt;div&gt;(vm2)&lt;/div&gt;" style="rounded=1;whiteSpace=wrap;html=1;" vertex="1" parent="1">
          <mxGeometry x="380" y="80" width="120" height="60" as="geometry" />
        </mxCell>
        <mxCell id="JFALsLwdeSYhTvg4Bosl-9" value="" style="html=1;verticalLabelPosition=bottom;align=center;labelBackgroundColor=#ffffff;verticalAlign=top;strokeWidth=2;strokeColor=#0080F0;shadow=0;dashed=0;shape=mxgraph.ios7.icons.monitor;" vertex="1" parent="1">
          <mxGeometry x="415" y="20.5" width="50" height="29.5" as="geometry" />
        </mxCell>
        <mxCell id="JFALsLwdeSYhTvg4Bosl-10" value="VSOMEIP" style="text;html=1;align=center;verticalAlign=middle;whiteSpace=wrap;rounded=0;" vertex="1" parent="1">
          <mxGeometry x="300" y="70" width="60" height="30" as="geometry" />
        </mxCell>
        <mxCell id="JFALsLwdeSYhTvg4Bosl-21" style="edgeStyle=orthogonalEdgeStyle;rounded=0;orthogonalLoop=1;jettySize=auto;html=1;exitX=0.5;exitY=0;exitDx=0;exitDy=0;entryX=1;entryY=0.75;entryDx=0;entryDy=0;" edge="1" parent="1" source="JFALsLwdeSYhTvg4Bosl-3" target="JFALsLwdeSYhTvg4Bosl-11">
          <mxGeometry relative="1" as="geometry">
            <Array as="points">
              <mxPoint x="210" y="40" />
            </Array>
          </mxGeometry>
        </mxCell>
        <mxCell id="JFALsLwdeSYhTvg4Bosl-11" value="Hardware" style="shape=parallelogram;perimeter=parallelogramPerimeter;whiteSpace=wrap;html=1;fixedSize=1;" vertex="1" parent="1">
          <mxGeometry x="50" y="20" width="80" height="30" as="geometry" />
        </mxCell>
        <mxCell id="JFALsLwdeSYhTvg4Bosl-13" value="Hardware" style="shape=parallelogram;perimeter=parallelogramPerimeter;whiteSpace=wrap;html=1;fixedSize=1;" vertex="1" parent="1">
          <mxGeometry x="40" y="170" width="80" height="30" as="geometry" />
        </mxCell>
        <mxCell id="JFALsLwdeSYhTvg4Bosl-20" style="edgeStyle=orthogonalEdgeStyle;rounded=0;orthogonalLoop=1;jettySize=auto;html=1;exitX=0.583;exitY=1.033;exitDx=0;exitDy=0;entryX=1;entryY=0.75;entryDx=0;entryDy=0;exitPerimeter=0;" edge="1" parent="1" source="JFALsLwdeSYhTvg4Bosl-3" target="JFALsLwdeSYhTvg4Bosl-13">
          <mxGeometry relative="1" as="geometry">
            <Array as="points">
              <mxPoint x="220" y="190" />
            </Array>
          </mxGeometry>
        </mxCell>
        <mxCell id="JFALsLwdeSYhTvg4Bosl-22" value="Control&lt;div&gt;Path&lt;/div&gt;" style="text;html=1;align=center;verticalAlign=middle;whiteSpace=wrap;rounded=0;" vertex="1" parent="1">
          <mxGeometry x="140" y="210" width="60" height="30" as="geometry" />
        </mxCell>
        <mxCell id="JFALsLwdeSYhTvg4Bosl-23" value="Control&lt;div&gt;Path&lt;/div&gt;" style="text;html=1;align=center;verticalAlign=middle;whiteSpace=wrap;rounded=0;" vertex="1" parent="1">
          <mxGeometry x="210" y="10" width="60" height="30" as="geometry" />
        </mxCell>
        <mxCell id="JFALsLwdeSYhTvg4Bosl-24" style="edgeStyle=orthogonalEdgeStyle;rounded=0;orthogonalLoop=1;jettySize=auto;html=1;exitX=0.5;exitY=0;exitDx=0;exitDy=0;entryX=0.52;entryY=1.068;entryDx=0;entryDy=0;entryPerimeter=0;" edge="1" parent="1" source="JFALsLwdeSYhTvg4Bosl-8" target="JFALsLwdeSYhTvg4Bosl-9">
          <mxGeometry relative="1" as="geometry" />
        </mxCell>
        <mxCell id="JFALsLwdeSYhTvg4Bosl-25" value="Local Display" style="text;html=1;align=center;verticalAlign=middle;whiteSpace=wrap;rounded=0;" vertex="1" parent="1">
          <mxGeometry x="480" y="20" width="60" height="30" as="geometry" />
        </mxCell>
        <mxCell id="JFALsLwdeSYhTvg4Bosl-26" value="&lt;div&gt;&lt;br&gt;&lt;/div&gt;&lt;div&gt;&lt;br&gt;&lt;/div&gt;&lt;div&gt;Loki/Grafana&lt;/div&gt;" style="rounded=1;whiteSpace=wrap;html=1;" vertex="1" parent="1">
          <mxGeometry x="590" y="180" width="110" height="120" as="geometry" />
        </mxCell>
        <mxCell id="JFALsLwdeSYhTvg4Bosl-27" value="" style="endArrow=none;dashed=1;html=1;rounded=0;exitX=0.75;exitY=1;exitDx=0;exitDy=0;entryX=0;entryY=0.5;entryDx=0;entryDy=0;" edge="1" parent="1" source="JFALsLwdeSYhTvg4Bosl-3" target="JFALsLwdeSYhTvg4Bosl-26">
          <mxGeometry width="50" height="50" relative="1" as="geometry">
            <mxPoint x="400" y="350" as="sourcePoint" />
            <mxPoint x="450" y="300" as="targetPoint" />
          </mxGeometry>
        </mxCell>
        <mxCell id="JFALsLwdeSYhTvg4Bosl-28" value="" style="endArrow=none;dashed=1;html=1;rounded=0;entryX=1;entryY=0.5;entryDx=0;entryDy=0;exitX=0;exitY=0.25;exitDx=0;exitDy=0;" edge="1" parent="1" source="JFALsLwdeSYhTvg4Bosl-26" target="JFALsLwdeSYhTvg4Bosl-8">
          <mxGeometry width="50" height="50" relative="1" as="geometry">
            <mxPoint x="480" y="280" as="sourcePoint" />
            <mxPoint x="450" y="300" as="targetPoint" />
          </mxGeometry>
        </mxCell>
        <mxCell id="JFALsLwdeSYhTvg4Bosl-29" value="DLT-OTEL&lt;div&gt;Datalink&lt;/div&gt;" style="text;html=1;align=center;verticalAlign=middle;whiteSpace=wrap;rounded=0;" vertex="1" parent="1">
          <mxGeometry x="550" y="120" width="60" height="30" as="geometry" />
        </mxCell>
        <mxCell id="JFALsLwdeSYhTvg4Bosl-30" value="DLT-OTEL&lt;div&gt;Datalink&lt;/div&gt;" style="text;html=1;align=center;verticalAlign=middle;whiteSpace=wrap;rounded=0;" vertex="1" parent="1">
          <mxGeometry x="355" y="190" width="60" height="30" as="geometry" />
        </mxCell>
        <mxCell id="JFALsLwdeSYhTvg4Bosl-31" value="" style="image;aspect=fixed;html=1;points=[];align=center;fontSize=12;image=img/lib/azure2/other/Grafana.svg;" vertex="1" parent="1">
          <mxGeometry x="616" y="190" width="68" height="52.800000000000004" as="geometry" />
        </mxCell>
        <mxCell id="JFALsLwdeSYhTvg4Bosl-33" value="" style="verticalLabelPosition=bottom;html=1;verticalAlign=top;align=center;strokeColor=none;fillColor=#00BEF2;shape=mxgraph.azure.computer;pointerEvents=1;" vertex="1" parent="1">
          <mxGeometry x="740" y="217.5" width="70" height="62.5" as="geometry" />
        </mxCell>
        <mxCell id="JFALsLwdeSYhTvg4Bosl-34" style="edgeStyle=orthogonalEdgeStyle;rounded=0;orthogonalLoop=1;jettySize=auto;html=1;exitX=1;exitY=0.5;exitDx=0;exitDy=0;entryX=0;entryY=0.5;entryDx=0;entryDy=0;entryPerimeter=0;" edge="1" parent="1" source="JFALsLwdeSYhTvg4Bosl-26" target="JFALsLwdeSYhTvg4Bosl-33">
          <mxGeometry relative="1" as="geometry" />
        </mxCell>
        <mxCell id="JFALsLwdeSYhTvg4Bosl-62" style="edgeStyle=orthogonalEdgeStyle;rounded=0;orthogonalLoop=1;jettySize=auto;html=1;exitX=0.5;exitY=0;exitDx=0;exitDy=0;entryX=0.25;entryY=1;entryDx=0;entryDy=0;" edge="1" parent="1" source="JFALsLwdeSYhTvg4Bosl-63" target="JFALsLwdeSYhTvg4Bosl-74">
          <mxGeometry relative="1" as="geometry" />
        </mxCell>
        <mxCell id="JFALsLwdeSYhTvg4Bosl-63" value="Sensor" style="rounded=0;whiteSpace=wrap;html=1;" vertex="1" parent="1">
          <mxGeometry x="55" y="460" width="70" height="30" as="geometry" />
        </mxCell>
        <mxCell id="JFALsLwdeSYhTvg4Bosl-64" style="edgeStyle=orthogonalEdgeStyle;rounded=0;orthogonalLoop=1;jettySize=auto;html=1;exitX=1;exitY=0.5;exitDx=0;exitDy=0;entryX=0;entryY=0.75;entryDx=0;entryDy=0;" edge="1" parent="1" source="JFALsLwdeSYhTvg4Bosl-66" target="JFALsLwdeSYhTvg4Bosl-67">
          <mxGeometry relative="1" as="geometry" />
        </mxCell>
        <mxCell id="JFALsLwdeSYhTvg4Bosl-65" style="edgeStyle=orthogonalEdgeStyle;rounded=0;orthogonalLoop=1;jettySize=auto;html=1;exitX=0.5;exitY=1;exitDx=0;exitDy=0;entryX=0.5;entryY=0;entryDx=0;entryDy=0;" edge="1" parent="1" source="JFALsLwdeSYhTvg4Bosl-66" target="JFALsLwdeSYhTvg4Bosl-75">
          <mxGeometry relative="1" as="geometry" />
        </mxCell>
        <mxCell id="JFALsLwdeSYhTvg4Bosl-66" value="Sensor" style="rounded=0;whiteSpace=wrap;html=1;" vertex="1" parent="1">
          <mxGeometry x="55" y="510" width="70" height="30" as="geometry" />
        </mxCell>
        <mxCell id="JFALsLwdeSYhTvg4Bosl-67" value="Info Collector&lt;br&gt;(vm1)" style="rounded=1;whiteSpace=wrap;html=1;" vertex="1" parent="1">
          <mxGeometry x="165" y="470" width="120" height="60" as="geometry" />
        </mxCell>
        <mxCell id="JFALsLwdeSYhTvg4Bosl-68" style="edgeStyle=orthogonalEdgeStyle;rounded=0;orthogonalLoop=1;jettySize=auto;html=1;exitX=1;exitY=0.5;exitDx=0;exitDy=0;entryX=-0.008;entryY=0.367;entryDx=0;entryDy=0;entryPerimeter=0;" edge="1" parent="1" source="JFALsLwdeSYhTvg4Bosl-63" target="JFALsLwdeSYhTvg4Bosl-67">
          <mxGeometry relative="1" as="geometry" />
        </mxCell>
        <mxCell id="JFALsLwdeSYhTvg4Bosl-70" value="System Decider&lt;div&gt;&lt;br&gt;&lt;/div&gt;" style="rounded=1;whiteSpace=wrap;html=1;" vertex="1" parent="1">
          <mxGeometry x="395" y="470" width="120" height="60" as="geometry" />
        </mxCell>
        <mxCell id="JFALsLwdeSYhTvg4Bosl-71" value="" style="html=1;verticalLabelPosition=bottom;align=center;labelBackgroundColor=#ffffff;verticalAlign=top;strokeWidth=2;strokeColor=#0080F0;shadow=0;dashed=0;shape=mxgraph.ios7.icons.monitor;" vertex="1" parent="1">
          <mxGeometry x="430" y="410.5" width="50" height="29.5" as="geometry" />
        </mxCell>
        <mxCell id="JFALsLwdeSYhTvg4Bosl-72" value="VSOMEIP" style="text;html=1;align=center;verticalAlign=middle;whiteSpace=wrap;rounded=0;" vertex="1" parent="1">
          <mxGeometry x="310" y="480" width="60" height="30" as="geometry" />
        </mxCell>
        <mxCell id="JFALsLwdeSYhTvg4Bosl-73" style="edgeStyle=orthogonalEdgeStyle;rounded=0;orthogonalLoop=1;jettySize=auto;html=1;exitX=0.5;exitY=0;exitDx=0;exitDy=0;entryX=1;entryY=0.75;entryDx=0;entryDy=0;" edge="1" parent="1" source="JFALsLwdeSYhTvg4Bosl-67" target="JFALsLwdeSYhTvg4Bosl-74">
          <mxGeometry relative="1" as="geometry">
            <Array as="points">
              <mxPoint x="225" y="430" />
            </Array>
          </mxGeometry>
        </mxCell>
        <mxCell id="JFALsLwdeSYhTvg4Bosl-74" value="Hardware" style="shape=parallelogram;perimeter=parallelogramPerimeter;whiteSpace=wrap;html=1;fixedSize=1;" vertex="1" parent="1">
          <mxGeometry x="65" y="410" width="80" height="30" as="geometry" />
        </mxCell>
        <mxCell id="JFALsLwdeSYhTvg4Bosl-75" value="Hardware" style="shape=parallelogram;perimeter=parallelogramPerimeter;whiteSpace=wrap;html=1;fixedSize=1;" vertex="1" parent="1">
          <mxGeometry x="55" y="560" width="80" height="30" as="geometry" />
        </mxCell>
        <mxCell id="JFALsLwdeSYhTvg4Bosl-76" style="edgeStyle=orthogonalEdgeStyle;rounded=0;orthogonalLoop=1;jettySize=auto;html=1;exitX=0.583;exitY=1.033;exitDx=0;exitDy=0;entryX=1;entryY=0.75;entryDx=0;entryDy=0;exitPerimeter=0;" edge="1" parent="1" source="JFALsLwdeSYhTvg4Bosl-67" target="JFALsLwdeSYhTvg4Bosl-75">
          <mxGeometry relative="1" as="geometry">
            <Array as="points">
              <mxPoint x="235" y="580" />
            </Array>
          </mxGeometry>
        </mxCell>
        <mxCell id="JFALsLwdeSYhTvg4Bosl-77" value="Control&lt;div&gt;Path&lt;/div&gt;" style="text;html=1;align=center;verticalAlign=middle;whiteSpace=wrap;rounded=0;" vertex="1" parent="1">
          <mxGeometry x="150" y="550" width="60" height="30" as="geometry" />
        </mxCell>
        <mxCell id="JFALsLwdeSYhTvg4Bosl-78" value="Control&lt;div&gt;Path&lt;/div&gt;" style="text;html=1;align=center;verticalAlign=middle;whiteSpace=wrap;rounded=0;" vertex="1" parent="1">
          <mxGeometry x="225" y="400" width="60" height="30" as="geometry" />
        </mxCell>
        <mxCell id="JFALsLwdeSYhTvg4Bosl-79" style="edgeStyle=orthogonalEdgeStyle;rounded=0;orthogonalLoop=1;jettySize=auto;html=1;exitX=0.5;exitY=0;exitDx=0;exitDy=0;entryX=0.52;entryY=1.068;entryDx=0;entryDy=0;entryPerimeter=0;" edge="1" parent="1" source="JFALsLwdeSYhTvg4Bosl-70" target="JFALsLwdeSYhTvg4Bosl-71">
          <mxGeometry relative="1" as="geometry" />
        </mxCell>
        <mxCell id="JFALsLwdeSYhTvg4Bosl-80" value="Local Display" style="text;html=1;align=center;verticalAlign=middle;whiteSpace=wrap;rounded=0;" vertex="1" parent="1">
          <mxGeometry x="495" y="410" width="60" height="30" as="geometry" />
        </mxCell>
        <mxCell id="JFALsLwdeSYhTvg4Bosl-81" value="&lt;div&gt;&lt;br&gt;&lt;/div&gt;&lt;div&gt;&lt;br&gt;&lt;/div&gt;&lt;div&gt;Loki/Grafana&lt;/div&gt;" style="rounded=1;whiteSpace=wrap;html=1;" vertex="1" parent="1">
          <mxGeometry x="605" y="570" width="110" height="120" as="geometry" />
        </mxCell>
        <mxCell id="JFALsLwdeSYhTvg4Bosl-85" value="DLT-OTEL&lt;div&gt;Datalink&lt;/div&gt;" style="text;html=1;align=center;verticalAlign=middle;whiteSpace=wrap;rounded=0;" vertex="1" parent="1">
          <mxGeometry x="410" y="640" width="60" height="30" as="geometry" />
        </mxCell>
        <mxCell id="JFALsLwdeSYhTvg4Bosl-86" value="" style="image;aspect=fixed;html=1;points=[];align=center;fontSize=12;image=img/lib/azure2/other/Grafana.svg;" vertex="1" parent="1">
          <mxGeometry x="631" y="580" width="68" height="52.800000000000004" as="geometry" />
        </mxCell>
        <mxCell id="JFALsLwdeSYhTvg4Bosl-87" value="" style="verticalLabelPosition=bottom;html=1;verticalAlign=top;align=center;strokeColor=none;fillColor=#00BEF2;shape=mxgraph.azure.computer;pointerEvents=1;" vertex="1" parent="1">
          <mxGeometry x="755" y="607.5" width="70" height="62.5" as="geometry" />
        </mxCell>
        <mxCell id="JFALsLwdeSYhTvg4Bosl-88" style="edgeStyle=orthogonalEdgeStyle;rounded=0;orthogonalLoop=1;jettySize=auto;html=1;exitX=1;exitY=0.5;exitDx=0;exitDy=0;entryX=0;entryY=0.5;entryDx=0;entryDy=0;entryPerimeter=0;" edge="1" parent="1" source="JFALsLwdeSYhTvg4Bosl-81" target="JFALsLwdeSYhTvg4Bosl-87">
          <mxGeometry relative="1" as="geometry" />
        </mxCell>
        <mxCell id="JFALsLwdeSYhTvg4Bosl-102" style="edgeStyle=orthogonalEdgeStyle;rounded=0;orthogonalLoop=1;jettySize=auto;html=1;exitX=0.5;exitY=1;exitDx=0;exitDy=0;entryX=0;entryY=0.5;entryDx=0;entryDy=0;" edge="1" parent="1" source="JFALsLwdeSYhTvg4Bosl-89" target="JFALsLwdeSYhTvg4Bosl-81">
          <mxGeometry relative="1" as="geometry" />
        </mxCell>
        <mxCell id="JFALsLwdeSYhTvg4Bosl-89" value="QM" style="ellipse;whiteSpace=wrap;html=1;" vertex="1" parent="1">
          <mxGeometry x="240" y="500" width="50" height="30" as="geometry" />
        </mxCell>
        <mxCell id="JFALsLwdeSYhTvg4Bosl-103" style="edgeStyle=orthogonalEdgeStyle;rounded=0;orthogonalLoop=1;jettySize=auto;html=1;exitX=0.5;exitY=1;exitDx=0;exitDy=0;entryX=0;entryY=0.5;entryDx=0;entryDy=0;" edge="1" parent="1" source="JFALsLwdeSYhTvg4Bosl-90" target="JFALsLwdeSYhTvg4Bosl-81">
          <mxGeometry relative="1" as="geometry" />
        </mxCell>
        <mxCell id="JFALsLwdeSYhTvg4Bosl-90" value="QM" style="ellipse;whiteSpace=wrap;html=1;" vertex="1" parent="1">
          <mxGeometry x="390" y="500" width="50" height="30" as="geometry" />
        </mxCell>
        <mxCell id="JFALsLwdeSYhTvg4Bosl-92" value="" style="endArrow=classic;startArrow=classic;html=1;rounded=0;exitX=1;exitY=0.5;exitDx=0;exitDy=0;entryX=0;entryY=0.5;entryDx=0;entryDy=0;" edge="1" parent="1" source="JFALsLwdeSYhTvg4Bosl-89" target="JFALsLwdeSYhTvg4Bosl-90">
          <mxGeometry width="50" height="50" relative="1" as="geometry">
            <mxPoint x="290" y="590" as="sourcePoint" />
            <mxPoint x="340" y="540" as="targetPoint" />
          </mxGeometry>
        </mxCell>
        <mxCell id="JFALsLwdeSYhTvg4Bosl-94" value="Decider QM" style="swimlane;fontStyle=0;childLayout=stackLayout;horizontal=1;startSize=30;horizontalStack=0;resizeParent=1;resizeParentMax=0;resizeLast=0;collapsible=1;marginBottom=0;whiteSpace=wrap;html=1;" vertex="1" parent="1">
          <mxGeometry x="570" y="380" width="140" height="110" as="geometry" />
        </mxCell>
        <mxCell id="JFALsLwdeSYhTvg4Bosl-100" value="&lt;ul&gt;&lt;li&gt;VSOMEIP&lt;/li&gt;&lt;li&gt;DLT_OTEL&lt;/li&gt;&lt;li&gt;AutoWare AD&lt;/li&gt;&lt;/ul&gt;" style="text;strokeColor=none;fillColor=none;html=1;whiteSpace=wrap;verticalAlign=middle;overflow=hidden;" vertex="1" parent="JFALsLwdeSYhTvg4Bosl-94">
          <mxGeometry y="30" width="140" height="80" as="geometry" />
        </mxCell>
        <mxCell id="JFALsLwdeSYhTvg4Bosl-104" value="Collector QM" style="swimlane;fontStyle=0;childLayout=stackLayout;horizontal=1;startSize=30;horizontalStack=0;resizeParent=1;resizeParentMax=0;resizeLast=0;collapsible=1;marginBottom=0;whiteSpace=wrap;html=1;" vertex="1" parent="1">
          <mxGeometry x="110" y="607.5" width="140" height="110" as="geometry" />
        </mxCell>
        <mxCell id="JFALsLwdeSYhTvg4Bosl-105" value="&lt;ul&gt;&lt;li&gt;VSOMEIP&lt;/li&gt;&lt;li&gt;DLT_OTEL&lt;/li&gt;&lt;/ul&gt;" style="text;strokeColor=none;fillColor=none;html=1;whiteSpace=wrap;verticalAlign=middle;overflow=hidden;" vertex="1" parent="JFALsLwdeSYhTvg4Bosl-104">
          <mxGeometry y="30" width="140" height="80" as="geometry" />
        </mxCell>
      </root>
    </mxGraphModel>
  </diagram>
</mxfile>
